<?xml version="1.0" encoding="UTF-8"?>
<svg version="1.1" xmlns="http://www.w3.org/2000/svg" viewBox="0 0 255 132"
  style="max-width: 100%; height: auto;">

  <path
    d="M0 0 C84.15 0 168.3 0 255 0 C255 43.56 255 87.12 255 132 C170.85 132 86.7 132 0 132 C0 88.44 0 44.88 0 0 Z "
    fill="#ABC4EF" transform="translate(0,0)" />
  <path
    d="M0 0 C0.99758331 -0.00315216 1.99516663 -0.00630432 3.02297974 -0.009552 C4.63558182 -0.00651566 4.63558182 -0.00651566 6.28076172 -0.00341797 C7.38394745 -0.00437469 8.48713318 -0.00533142 9.62374878 -0.00631714 C11.95554664 -0.00699781 14.2873464 -0.00515138 16.61914062 -0.00097656 C20.20300511 0.0043834 23.78674484 -0.00093062 27.37060547 -0.00732422 C29.6323245 -0.00666362 31.89404345 -0.00538283 34.15576172 -0.00341797 C35.23487823 -0.0054422 36.31399475 -0.00746643 37.42581177 -0.009552 C38.41709076 -0.00639984 39.40836975 -0.00324768 40.4296875 0 C41.3066629 0.00079559 42.18363831 0.00159119 43.08718872 0.00241089 C45.08544922 0.12939453 45.08544922 0.12939453 46.08544922 1.12939453 C46.17977907 3.33807284 46.20287353 5.54980974 46.19897461 7.76049805 C46.19912064 8.45314758 46.19926666 9.14579712 46.19941711 9.85943604 C46.19871796 12.15908899 46.1909255 14.4586619 46.18310547 16.75830078 C46.1812413 18.34870866 46.17981739 19.9391171 46.17881775 21.52952576 C46.1749925 25.72335383 46.16516217 29.91714748 46.15411377 34.11096191 C46.14389979 38.38728367 46.13932016 42.66361097 46.13427734 46.93994141 C46.1235399 55.33644161 46.10646341 63.73291379 46.08544922 72.12939453 C45.52026077 72.13748138 44.95507233 72.14556824 44.37275696 72.15390015 C38.48387362 72.24003763 32.59532332 72.33954525 26.70678711 72.44677734 C24.50990396 72.48503193 22.31295892 72.51989093 20.1159668 72.55126953 C16.9558299 72.59699613 13.79611772 72.65497871 10.63623047 72.71533203 C9.65584305 72.72688324 8.67545563 72.73843445 7.6653595 72.75033569 C1.15755196 72.88865497 1.15755196 72.88865497 -4.91455078 75.12939453 C-4.95213501 76.12120728 -4.95213501 76.12120728 -4.99047852 77.13305664 C-5.10608181 80.11121758 -5.22896832 83.08903373 -5.35205078 86.06689453 C-5.39136719 87.1078125 -5.43068359 88.14873047 -5.47119141 89.22119141 C-5.5340332 90.70522461 -5.5340332 90.70522461 -5.59814453 92.21923828 C-5.63480225 93.13568115 -5.67145996 94.05212402 -5.70922852 94.99633789 C-5.91455078 97.12939453 -5.91455078 97.12939453 -6.91455078 98.12939453 C-10.30030076 98.59963758 -11.56933517 98.38609332 -14.35205078 96.31689453 C-15.19767578 95.59501953 -16.04330078 94.87314453 -16.91455078 94.12939453 C-18.89905234 93.09898026 -20.89654183 92.09253517 -22.91455078 91.12939453 C-23.24455078 90.79939453 -23.57455078 90.46939453 -23.91455078 90.12939453 C-26.71266007 89.98156414 -29.48922714 89.89434137 -32.28955078 89.84814453 C-33.12921387 89.82973511 -33.96887695 89.81132568 -34.83398438 89.7923584 C-37.52743314 89.73341887 -40.22094599 89.68067847 -42.91455078 89.62939453 C-46.45635894 89.56196153 -49.99795354 89.48829325 -53.53955078 89.41064453 C-54.36245605 89.39706909 -55.18536133 89.38349365 -56.03320312 89.36950684 C-61.80174897 89.24219634 -61.80174897 89.24219634 -62.91455078 88.12939453 C-63.00895056 85.85947566 -63.03197305 83.58657486 -63.02807617 81.31469727 C-63.0282222 80.60254059 -63.02836823 79.89038391 -63.02851868 79.15664673 C-63.02781949 76.79206341 -63.02002684 74.42755792 -63.01220703 72.06298828 C-63.01034287 70.4277399 -63.00891896 68.79249096 -63.00791931 67.15724182 C-63.00409396 62.84504668 -62.99426353 58.53288501 -62.98321533 54.22070312 C-62.97120705 49.05119773 -62.96659905 43.88168117 -62.96076202 38.71216583 C-62.95105178 30.85121876 -62.93189536 22.99034518 -62.91455078 15.12939453 C-46.74455078 15.12939453 -30.57455078 15.12939453 -13.91455078 15.12939453 C-13.25455078 12.48939453 -12.59455078 9.84939453 -11.91455078 7.12939453 C-8.63157595 1.30476177 -6.55252503 0.00593369 0 0 Z "
    fill="#232D56" transform="translate(76.91455078125,18.87060546875)" />
  <path
    d="M0 0 C1.98 0 3.96 0 6 0 C6 2.97 6 5.94 6 9 C7.32 8.67 8.64 8.34 10 8 C14.48524873 7.75535007 18.06247756 7.70311191 22 10 C25.58984113 13.96120401 25.26082631 17.92066567 25.10546875 22.98828125 C25.07066406 23.65214844 25.03585938 24.31601562 25 25 C25.66 25 26.32 25 27 25 C27.13277344 24.08476563 27.26554687 23.16953125 27.40234375 22.2265625 C27.57894531 21.03804687 27.75554687 19.84953125 27.9375 18.625 C28.11152344 17.44164063 28.28554687 16.25828125 28.46484375 15.0390625 C29 12 29 12 30 10 C30.99 10 31.98 10 33 10 C33 9.34 33 8.68 33 8 C36.4366186 6.2816907 40.2344225 6.61207195 44 7 C46.5625 8.375 46.5625 8.375 48 10 C48 10.66 48 11.32 48 12 C48.66 12 49.32 12 50 12 C52.09555583 16.19111165 51.55842023 21.44766121 51 26 C48.78436838 28.97361086 47.26080415 30.36959793 44 32 C42.64655763 32.04428441 41.2910961 32.03930588 39.9375 32 C38.638125 32 37.33875 32 36 32 C35.67 32.33 35.34 32.66 35 33 C36.32064453 32.98259766 36.32064453 32.98259766 37.66796875 32.96484375 C39.41013672 32.95130859 39.41013672 32.95130859 41.1875 32.9375 C42.33605469 32.92589844 43.48460937 32.91429687 44.66796875 32.90234375 C47.60470675 32.98841462 50.14272308 33.38422593 53 34 C53.02469081 38.3782512 53.04285557 42.75646567 53.05493164 47.13476562 C53.05996514 48.62468166 53.06679242 50.11459274 53.07543945 51.60449219 C53.08754805 53.74415304 53.09323807 55.88374868 53.09765625 58.0234375 C53.10289307 59.31169434 53.10812988 60.59995117 53.11352539 61.92724609 C53 65 53 65 52 67 C46.375 67.25 46.375 67.25 43 65 C42.67 65.33 42.34 65.66 42 66 C39.32941149 66.14115161 36.67567762 66.04247107 34 66 C34 65.34 34 64.68 34 64 C33.34 64 32.68 64 32 64 C32 64.66 32 65.32 32 66 C28.81723924 67.59138038 25.4646612 67.39713508 22 67 C19.5 65.625 19.5 65.625 18 64 C18 63.34 18 62.68 18 62 C16.35 62 14.7 62 13 62 C13 63.65 13 65.3 13 67 C11.2312602 67.13513292 9.45956945 67.23205586 7.6875 67.3125 C6.70136719 67.37050781 5.71523437 67.42851563 4.69921875 67.48828125 C2 67 2 67 0.15625 64.90625 C-1.21503665 61.45950247 -1.29956569 58.88566793 -1.1875 55.1875 C-1.16042969 54.02605469 -1.13335937 52.86460938 -1.10546875 51.66796875 C-1.07066406 50.78753906 -1.03585938 49.90710938 -1 49 C-1.66 48.67 -2.32 48.34 -3 48 C-2.505 45.03 -2.505 45.03 -2 42 C-1.01 42 -0.02 42 1 42 C1 40.35 1 38.7 1 37 C2.8871875 37.0928125 2.8871875 37.0928125 4.8125 37.1875 C8.16958979 37.23632922 8.16958979 37.23632922 11 35.5 C11.33 35.005 11.66 34.51 12 34 C10.48009222 32.27072025 10.48009222 32.27072025 8 31 C4.04 31.495 4.04 31.495 0 32 C0 21.44 0 10.88 0 0 Z "
    fill="#B3C7EB" transform="translate(135,38)" />
  <path
    d="M0 0 C10.02375 -0.12375 10.02375 -0.12375 20.25 -0.25 C22.35407227 -0.28641602 24.45814453 -0.32283203 26.62597656 -0.36035156 C28.29751566 -0.37203623 29.96906615 -0.38222858 31.640625 -0.390625 C32.93782471 -0.4213208 32.93782471 -0.4213208 34.26123047 -0.45263672 C35.50912354 -0.45336182 35.50912354 -0.45336182 36.78222656 -0.45410156 C37.86144379 -0.46742523 37.86144379 -0.46742523 38.96246338 -0.48101807 C41.99769586 0.23553429 43.14886529 1.52298534 45 4 C45.48101807 6.8727417 45.48101807 6.8727417 45.45410156 10.23730469 C45.45379944 11.49830994 45.45349731 12.75931519 45.45318604 14.05853271 C45.43276105 15.42965326 45.41189709 16.80076733 45.390625 18.171875 C45.38316117 19.57862544 45.3774689 20.98538631 45.37347412 22.39215088 C45.3582286 26.08808282 45.31895731 29.78338227 45.2746582 33.47906494 C45.23368143 37.25288335 45.21545804 41.02680432 45.1953125 44.80078125 C45.15246099 52.20080864 45.08422405 59.60031557 45 67 C42.44311224 65.7629622 40.1606462 64.45976987 37.75756836 62.91308594 C33.90320972 60.70364217 30.2603477 60.39770203 25.87890625 60.390625 C25.2175769 60.37499512 24.55624756 60.35936523 23.87487793 60.34326172 C21.43777595 60.29122097 19.00005377 60.27249238 16.5625 60.25 C11.096875 60.1675 5.63125 60.085 0 60 C0 40.2 0 20.4 0 0 Z "
    fill="#F5F7FA" transform="translate(20,41)" />
  <path
    d="M0 0 C0.76364868 0.00100708 1.52729736 0.00201416 2.31408691 0.00305176 C5.16383366 0.00827961 8.01355898 0.02224089 10.86328125 0.03515625 C17.23640625 0.05578125 23.60953125 0.07640625 30.17578125 0.09765625 C30.17578125 19.89765625 30.17578125 39.69765625 30.17578125 60.09765625 C13.86328125 60.53515625 13.86328125 60.53515625 8.7878418 60.66577148 C7.42105352 60.7039906 6.05427241 60.7424674 4.6875 60.78125 C4.00965454 60.79772583 3.33180908 60.81420166 2.63342285 60.83117676 C-3.21039972 61.00236047 -9.0072915 61.52445185 -14.82421875 62.09765625 C-14.8937121 54.58727911 -14.94702653 47.07693529 -14.97965527 39.56630993 C-14.9953151 36.07884049 -15.01655855 32.59159093 -15.05053711 29.10424805 C-15.08935155 25.09551882 -15.10392525 21.08702077 -15.1171875 17.078125 C-15.13267136 15.82492966 -15.14815521 14.57173431 -15.16410828 13.28056335 C-15.16433487 12.11958633 -15.16456146 10.95860931 -15.16479492 9.76245117 C-15.17145676 8.73874924 -15.17811859 7.7150473 -15.1849823 6.6603241 C-14.82421875 4.09765625 -14.82421875 4.09765625 -13.49043274 2.30610657 C-9.41704983 -0.64818436 -4.79052995 -0.02964466 0 0 Z "
    fill="#F3F6FA" transform="translate(85.82421875,24.90234375)" />
  <path
    d="M0 0 C0.91434814 -0.00637985 1.82869629 -0.0127597 2.77075195 -0.01933289 C3.76034912 -0.02044571 4.74994629 -0.02155853 5.76953125 -0.02270508 C6.78297607 -0.02603348 7.7964209 -0.02936188 8.84057617 -0.03279114 C10.98583522 -0.03785948 13.13110216 -0.04019949 15.27636719 -0.04003906 C18.56849047 -0.04222733 21.86027973 -0.06038901 25.15234375 -0.0793457 C27.23307177 -0.08227921 29.31380138 -0.08426429 31.39453125 -0.08520508 C32.38412842 -0.09239059 33.37372559 -0.09957611 34.39331055 -0.10697937 C35.30765869 -0.10390274 36.22200684 -0.10082611 37.1640625 -0.09765625 C38.37412964 -0.09979378 38.37412964 -0.09979378 39.60864258 -0.10197449 C41.58203125 0.14526367 41.58203125 0.14526367 43.58203125 2.14526367 C41.93203125 2.14526367 40.28203125 2.14526367 38.58203125 2.14526367 C38.58203125 2.80526367 38.58203125 3.46526367 38.58203125 4.14526367 C25.64229618 5.43923718 12.58630405 5.14526367 -0.41796875 5.14526367 C-0.41796875 25.27526367 -0.41796875 45.40526367 -0.41796875 66.14526367 C10.63674489 65.98706477 10.63674489 65.98706477 21.69067383 65.78491211 C23.07762422 65.77322854 24.46458832 65.76303592 25.8515625 65.75463867 C26.57033569 65.7341748 27.28910889 65.71371094 28.02966309 65.69262695 C30.12036133 65.69116211 30.12036133 65.69116211 33.58203125 66.14526367 C35.56518555 68.16967773 35.56518555 68.16967773 36.58203125 70.14526367 C35.59203125 70.14526367 34.60203125 70.14526367 33.58203125 70.14526367 C33.58203125 70.80526367 33.58203125 71.46526367 33.58203125 72.14526367 C13.78203125 71.65026367 13.78203125 71.65026367 -6.41796875 71.14526367 C-6.41796875 48.04526367 -6.41796875 24.94526367 -6.41796875 1.14526367 C-4.0594188 -0.0340113 -2.6298016 0.01242609 0 0 Z "
    fill="#212C57" transform="translate(20.41796875,34.854736328125)" />
  <path
    d="M0 0 C1.98 0 3.96 0 6 0 C6 2.97 6 5.94 6 9 C7.32 8.67 8.64 8.34 10 8 C14.48524873 7.75535007 18.06247756 7.70311191 22 10 C25.29495385 13.74943024 25.30065313 17.15143881 25.203125 21.9140625 C24.88084634 25.22361646 24.20338607 26.79327365 21.859375 29.17578125 C18.34841445 31.41569734 16.36933613 31.38787495 12.25 31.1875 C10.16752014 31.10111911 8.08401911 31.03237883 6 31 C5.67 31.33 5.34 31.66 5 32 C3.35 32 1.7 32 0 32 C0 21.44 0 10.88 0 0 Z "
    fill="#F3F8FD" transform="translate(135,38)" />
  <path
    d="M0 0 C0.99 0.66 1.98 1.32 3 2 C3.33 1.34 3.66 0.68 4 0 C5.99954746 -0.04254356 8.00041636 -0.04080783 10 0 C11 1 11 1 11.11352539 3.22485352 C11.10828857 4.18319092 11.10305176 5.14152832 11.09765625 6.12890625 C11.09443359 7.16337891 11.09121094 8.19785156 11.08789062 9.26367188 C11.07951172 10.35228516 11.07113281 11.44089844 11.0625 12.5625 C11.05798828 13.65498047 11.05347656 14.74746094 11.04882812 15.87304688 C11.03699826 18.58208495 11.02051543 21.29101599 11 24 C9.02 24 7.04 24 5 24 C5 23.34 5 22.68 5 22 C4.34 22 3.68 22 3 22 C3 22.66 3 23.32 3 24 C-0.22340777 25.61170388 -3.51441919 25.59542551 -7 25 C-10.68292334 22.19777572 -12.85158854 19.4892448 -14 15 C-14.46966289 10.06853965 -14.51128659 7.96968146 -12.1875 3.5625 C-8.63964495 -0.59355878 -5.22395994 -0.279855 0 0 Z "
    fill="#F1F7FD" transform="translate(164,80)" />
  <path
    d="M0 0 C12.87 0 25.74 0 39 0 C39 19.8 39 39.6 39 60 C22.6875 60.4375 22.6875 60.4375 17.61206055 60.56811523 C16.24527227 60.60633435 14.87849116 60.64481115 13.51171875 60.68359375 C12.83387329 60.70006958 12.15602783 60.71654541 11.4576416 60.73352051 C5.58236974 60.90562547 -0.10905229 61.4644593 -6 62 C-6 42.86 -6 23.72 -6 4 C-5.67 4 -5.34 4 -5 4 C-5 19.84 -5 35.68 -5 52 C-2.36 51.34 0.28 50.68 3 50 C5.77892357 49.84340772 8.4467969 49.76395154 11.21875 49.8046875 C12.33376892 49.80893234 12.33376892 49.80893234 13.47131348 49.81326294 C15.81438217 49.82433843 18.15704947 49.84941772 20.5 49.875 C22.10155693 49.88504619 23.70311993 49.89416915 25.3046875 49.90234375 C29.2032765 49.9242361 33.10157052 49.95867614 37 50 C36.96744792 52.05078125 36.93489583 54.1015625 36.90234375 56.15234375 C36.79438816 58.01732141 36.79438816 58.01732141 38 59 C38 39.86 38 20.72 38 1 C25.46 1 12.92 1 0 1 C0 0.67 0 0.34 0 0 Z "
    fill="#ACBDE1" transform="translate(77,25)" />
  <path
    d="M0 0 C1.32 0.66 2.64 1.32 4 2 C4 7.61 4 13.22 4 19 C3.01 19.495 3.01 19.495 2 20 C2 39.47 2 58.94 2 79 C2.66 78.67 3.32 78.34 4 78 C4.40729228 75.67843403 4.74438677 73.3431213 5 71 C5.33 71 5.66 71 6 71 C6.02888514 74.14581423 6.04675923 77.29159469 6.0625 80.4375 C6.07087891 81.33533203 6.07925781 82.23316406 6.08789062 83.15820312 C6.09111328 84.01220703 6.09433594 84.86621094 6.09765625 85.74609375 C6.10289307 86.53685303 6.10812988 87.3276123 6.11352539 88.14233398 C6 90 6 90 5 91 C1.61425002 91.47024305 0.34521562 91.25669879 -2.4375 89.1875 C-3.283125 88.465625 -4.12875 87.74375 -5 87 C-6.98450156 85.96958573 -8.98199105 84.96314063 -11 84 C-11.33 83.67 -11.66 83.34 -12 83 C-14.80976518 82.83982834 -17.59773596 82.74049466 -20.41015625 82.68359375 C-21.25219101 82.66281265 -22.09422577 82.64203156 -22.96177673 82.62062073 C-25.66193179 82.55503188 -28.36218717 82.49619724 -31.0625 82.4375 C-32.88868241 82.39432363 -34.71485454 82.35070964 -36.54101562 82.30664062 C-41.02723992 82.19934106 -45.5135655 82.09810034 -50 82 C-50.33 81.34 -50.66 80.68 -51 80 C-45.62484067 79.97532241 -40.24971415 79.95715072 -34.87451172 79.94506836 C-33.04507879 79.94003263 -31.21564991 79.93320373 -29.38623047 79.92456055 C-26.76008102 79.91246176 -24.13398468 79.90676417 -21.5078125 79.90234375 C-20.68693146 79.89718246 -19.86605042 79.89202118 -19.02029419 79.88670349 C-13.22774341 79.88612829 -13.22774341 79.88612829 -11 81 C-11 80.34 -11 79.68 -11 79 C-10.34 78.67 -9.68 78.34 -9 78 C-9.33 77.34 -9.66 76.68 -10 76 C-6.42014021 77.65224298 -3.264297 79.79995325 0 82 C-0.06118506 73.83738821 -0.13827147 65.67514831 -0.23571491 57.51289654 C-0.28046024 53.72289337 -0.3197068 49.93299872 -0.34643555 46.14282227 C-0.37242758 42.48568947 -0.41279987 38.82897338 -0.46318626 35.17209816 C-0.47988295 33.7762959 -0.49137979 32.38042151 -0.49761391 30.98453331 C-0.50722363 29.03083288 -0.53696471 27.07726273 -0.56762695 25.1237793 C-0.58428154 23.4549897 -0.58428154 23.4549897 -0.60127258 21.75248718 C-0.79187192 19.01152588 -0.79187192 19.01152588 -2.27050781 17.14428711 C-4.37260239 15.75347439 -5.59378405 15.60624948 -8.10424805 15.56762695 C-8.92487228 15.54783279 -9.74549652 15.52803864 -10.59098816 15.50764465 C-11.47232925 15.50125473 -12.35367035 15.49486481 -13.26171875 15.48828125 C-14.16751175 15.47033005 -15.07330475 15.45237885 -16.00654602 15.43388367 C-18.90014996 15.37969341 -21.79358815 15.34585714 -24.6875 15.3125 C-26.64911165 15.27933461 -28.61070141 15.24484568 -30.57226562 15.20898438 C-35.38139097 15.12396194 -40.19046641 15.0571924 -45 15 C-45 14.67 -45 14.34 -45 14 C-32.13 13.67 -19.26 13.34 -6 13 C-6 12.34 -6 11.68 -6 11 C-5.01 10.67 -4.02 10.34 -3 10 C-18.84 10 -34.68 10 -51 10 C-51 9.34 -51 8.68 -51 8 C-34.83 8 -18.66 8 -2 8 C-1.34 5.36 -0.68 2.72 0 0 Z "
    fill="#465175" transform="translate(65,26)" />
  <path
    d="M0 0 C2.5 2.125 2.5 2.125 3.5 4.125 C3.59585131 5.76856807 3.62983511 7.41614642 3.625 9.0625 C3.62886719 10.37541016 3.62886719 10.37541016 3.6328125 11.71484375 C3.5 14.125 3.5 14.125 2.5 17.125 C-1.22153308 20.45479275 -3.79122264 21.96379459 -8.8125 22.4375 C-13.18119458 22.06727165 -15.13102201 20.86719139 -18.5 18.125 C-21.33805072 13.86792392 -21.13633079 10.12252478 -20.5 5.125 C-18.75 1.5625 -18.75 1.5625 -16.5 -0.875 C-10.85006496 -2.78983154 -5.2423111 -2.80838095 0 0 Z "
    fill="#F1F8FD" transform="translate(210.5,47.875)" />
  <path
    d="M0 0 C2.5625 1.375 2.5625 1.375 4 3 C4 3.66 4 4.32 4 5 C4.66 5 5.32 5 6 5 C8.09555583 9.19111165 7.55842023 14.44766121 7 19 C4.78436838 21.97361086 3.26080415 23.36959793 0 25 C-5.29449372 25.34717992 -8.74663444 25.52421718 -13 22 C-15.91682512 18.47969382 -16.40246436 15.5578273 -16.23828125 11.00390625 C-15.90141179 8.17088931 -15.05594367 5.63985919 -14 3 C-13.01 3 -12.02 3 -11 3 C-11 2.34 -11 1.68 -11 1 C-7.5633814 -0.7183093 -3.7655775 -0.38792805 0 0 Z "
    fill="#F5FAFD" transform="translate(179,45)" />
  <path
    d="M0 0 C11.22 0 22.44 0 34 0 C34 23.1 34 46.2 34 70 C33.67 70 33.34 70 33 70 C32.505 62.575 32.505 62.575 32 55 C30.26043342 56.73956658 30.62809614 59.1936622 30.4375 61.5625 C30.35371094 62.57441406 30.26992187 63.58632812 30.18359375 64.62890625 C30.09271484 65.80259766 30.09271484 65.80259766 30 67 C29.67 67 29.34 67 29 67 C28.67 46.87 28.34 26.74 28 6 C8.2 5.505 8.2 5.505 -12 5 C-12 4.67 -12 4.34 -12 4 C-10.95199219 3.90912109 -10.95199219 3.90912109 -9.8828125 3.81640625 C-8.97273438 3.73261719 -8.06265625 3.64882813 -7.125 3.5625 C-6.22007813 3.48128906 -5.31515625 3.40007813 -4.3828125 3.31640625 C-1.98889139 3.13010715 -1.98889139 3.13010715 0 2 C0 1.34 0 0.68 0 0 Z "
    fill="#15254F" transform="translate(88,19)" />
  <path
    d="M0 0 C0.33 0 0.66 0 1 0 C1 23.43 1 46.86 1 71 C-21.75 71.375 -21.75 71.375 -28.91699219 71.47802734 C-30.79363423 71.51323609 -32.67026309 71.54915765 -34.546875 71.5859375 C-35.51963379 71.59729736 -36.49239258 71.60865723 -37.49462891 71.62036133 C-38.42807129 71.64042236 -39.36151367 71.6604834 -40.32324219 71.68115234 C-41.1315448 71.69447601 -41.93984741 71.70779968 -42.77264404 71.7215271 C-45.21533207 72.02692167 -46.81934282 72.90821895 -49 74 C-49.66 73.67 -50.32 73.34 -51 73 C-50.67 71.68 -50.34 70.36 -50 69 C-49.01 69 -48.02 69 -47 69 C-47.33 68.01 -47.66 67.02 -48 66 C-42.5435281 65.22699981 -37.28749856 64.86170605 -31.78125 64.90234375 C-30.7907666 64.90385437 -30.7907666 64.90385437 -29.78027344 64.90539551 C-27.35349753 64.91056064 -24.9267467 64.9245209 -22.5 64.9375 C-14.3325 64.9684375 -14.3325 64.9684375 -6 65 C-6 45.2 -6 25.4 -6 5 C-5.67 5 -5.34 5 -5 5 C-4.67 21.5 -4.34 38 -4 55 C-3.01 54.34 -2.02 53.68 -1 53 C-0.5232915 50.66257775 -0.5232915 50.66257775 -0.56762695 47.90771484 C-0.54783279 46.84676605 -0.52803864 45.78581726 -0.50764465 44.69271851 C-0.50125473 43.54373077 -0.49486481 42.39474304 -0.48828125 41.2109375 C-0.47033005 40.03737701 -0.45237885 38.86381653 -0.43388367 37.6546936 C-0.37956578 33.89483264 -0.34581552 30.13510015 -0.3125 26.375 C-0.27934597 23.8307112 -0.24485813 21.28643941 -0.20898438 18.7421875 C-0.12382702 12.49490687 -0.05556844 6.24761005 0 0 Z "
    fill="#303F68" transform="translate(122,20)" />
  <path
    d="M0 0 C2.31 0 4.62 0 7 0 C7.33 4.95 7.66 9.9 8 15 C8.825 13.845 9.65 12.69 10.5 11.5 C12.36046719 9.28791341 13.32408821 8.14414606 16.1796875 7.53515625 C18.375 7.5625 18.375 7.5625 22 8 C20.64763423 10.93879484 19.10057341 13.29232911 17 15.75 C16.484375 16.36359375 15.96875 16.9771875 15.4375 17.609375 C14 19 14 19 12 19 C12 19.99 12 20.98 12 22 C12.99 22.33 13.98 22.66 15 23 C16.60546875 24.55859375 16.60546875 24.55859375 18.1875 26.4375 C18.71730469 27.05496094 19.24710938 27.67242187 19.79296875 28.30859375 C21 30 21 30 21 32 C17.875 32.4375 17.875 32.4375 14 32 C11.61317961 29.93418366 9.79950957 27.58391118 8 25 C7.67 27.64 7.34 30.28 7 33 C5.00045254 33.04254356 2.99958364 33.04080783 1 33 C0 32 0 32 -0.11352539 28.94897461 C-0.11336634 27.60008729 -0.10767612 26.25119386 -0.09765625 24.90234375 C-0.0962413 24.19348526 -0.09482635 23.48462677 -0.09336853 22.75428772 C-0.08775443 20.48198288 -0.07519963 18.20977525 -0.0625 15.9375 C-0.05748681 14.40039204 -0.05292359 12.86328255 -0.04882812 11.32617188 C-0.03778042 7.55074358 -0.02050641 3.77538829 0 0 Z "
    fill="#EFF5FD" transform="translate(192,72)" />
  <path
    d="M0 0 C2.31 0 4.62 0 7 0 C7.33 4.95 7.66 9.9 8 15 C8.845625 13.845 9.69125 12.69 10.5625 11.5 C13.18726114 8.38661985 13.5887237 8.04643442 17.875 7.5625 C18.90625 7.706875 19.9375 7.85125 21 8 C19.32598022 11.95677402 16.86850715 14.84464213 14 18 C13.34 18 12.68 18 12 18 C12 18.99 12 19.98 12 21 C12.66 21 13.32 21 14 21 C15.7265625 22.6796875 15.7265625 22.6796875 17.625 24.875 C18.25664062 25.59429687 18.88828125 26.31359375 19.5390625 27.0546875 C21 29 21 29 21 31 C18.69 31 16.38 31 14 31 C13.67 30.01 13.34 29.02 13 28 C12.34 28 11.68 28 11 28 C9.375 26 9.375 26 8 24 C7.67 26.31 7.34 28.62 7 31 C4.69 31 2.38 31 0 31 C0 20.77 0 10.54 0 0 Z "
    fill="#F0F6FD" transform="translate(218,38)" />
  <path
    d="M0 0 C13.86 0 27.72 0 42 0 C42 4.29 42 8.58 42 13 C41.0409375 12.35546875 40.081875 11.7109375 39.09375 11.046875 C32.18067842 7.59033921 24.05846768 8.316958 16.5 8.25 C14.89840568 8.2218052 13.29684095 8.19187292 11.6953125 8.16015625 C7.7969284 8.08670485 3.8988946 8.036878 0 8 C0 5.36 0 2.72 0 0 Z "
    fill="#A9C0EC" transform="translate(20,93)" />
  <path
    d="M0 0 C0.91442368 -0.00637985 1.82884735 -0.0127597 2.77098083 -0.01933289 C3.76573929 -0.02044571 4.76049774 -0.02155853 5.78540039 -0.02270508 C6.80026016 -0.02603348 7.81511993 -0.02936188 8.86073303 -0.03279114 C11.01196844 -0.03786483 13.16321174 -0.04019933 15.31445312 -0.04003906 C18.615447 -0.04222467 21.91610639 -0.0603734 25.21704102 -0.0793457 C27.30232632 -0.08227964 29.38761323 -0.08426443 31.47290039 -0.08520508 C32.46563461 -0.09239059 33.45836884 -0.09957611 34.48118591 -0.10697937 C35.39876175 -0.10390274 36.31633759 -0.10082611 37.26171875 -0.09765625 C38.07144638 -0.09908127 38.88117401 -0.10050629 39.71543884 -0.10197449 C41.69555664 0.14526367 41.69555664 0.14526367 43.69555664 2.14526367 C42.04555664 2.14526367 40.39555664 2.14526367 38.69555664 2.14526367 C38.69555664 2.80526367 38.69555664 3.46526367 38.69555664 4.14526367 C25.74307515 5.44051182 12.70490728 5.69666537 -0.30444336 6.14526367 C-0.63444336 25.94526367 -0.96444336 45.74526367 -1.30444336 66.14526367 C-1.63444336 66.14526367 -1.96444336 66.14526367 -2.30444336 66.14526367 C-2.30444336 45.02526367 -2.30444336 23.90526367 -2.30444336 2.14526367 C-2.63444336 2.14526367 -2.96444336 2.14526367 -3.30444336 2.14526367 C-3.63444336 21.94526367 -3.96444336 41.74526367 -4.30444336 62.14526367 C-4.63444336 62.14526367 -4.96444336 62.14526367 -5.30444336 62.14526367 C-5.327571 54.2091258 -5.34536059 46.27300192 -5.35625553 38.33683872 C-5.36148344 34.65211869 -5.36857941 30.96742164 -5.37988281 27.28271484 C-5.39071498 23.72955536 -5.39672089 20.17641805 -5.3993206 16.62324333 C-5.40117426 15.26480701 -5.40479374 13.90637196 -5.41017342 12.54794502 C-5.41738811 10.65144144 -5.41785145 8.75491574 -5.41796875 6.85839844 C-5.42018936 5.7769606 -5.42240997 4.69552277 -5.42469788 3.58131409 C-5.22207859 -0.52323685 -3.67653577 0.01732434 0 0 Z "
    fill="#1C2751" transform="translate(20.304443359375,34.854736328125)" />
  <path
    d="M0 0 C13.53 0 27.06 0 41 0 C41 0.33 41 0.66 41 1 C27.8 1 14.6 1 1 1 C1 17.17 1 33.34 1 50 C15.19 50 29.38 50 44 50 C44 34.82 44 19.64 44 4 C44.33 4 44.66 4 45 4 C45 24.79 45 45.58 45 67 C44.01 66.67 43.02 66.34 42 66 C42 61.38 42 56.76 42 52 C28.14 52 14.28 52 0 52 C0 34.84 0 17.68 0 0 Z "
    fill="#BEC7DF" transform="translate(20,41)" />
  <path
    d="M0 0 C1.98 0 3.96 0 6 0 C6 1.98 6 3.96 6 6 C7.65 6 9.3 6 11 6 C11 7.32 11 8.64 11 10 C9.35 10 7.7 10 6 10 C6.33 14.29 6.66 18.58 7 23 C8.32 23.33 9.64 23.66 11 24 C11 25.65 11 27.3 11 29 C9.54257537 29.08096803 8.08387193 29.13917774 6.625 29.1875 C5.81289062 29.22230469 5.00078125 29.25710937 4.1640625 29.29296875 C3.44992188 29.19628906 2.73578125 29.09960938 2 29 C-0.45391569 25.31912647 -0.22802759 22.55644412 -0.125 18.3125 C-0.11597656 17.61060547 -0.10695312 16.90871094 -0.09765625 16.18554688 C-0.07413704 14.45688475 -0.03826713 12.72839855 0 11 C-0.99 11 -1.98 11 -3 11 C-3 9.02 -3 7.04 -3 5 C-2.01 5 -1.02 5 0 5 C0 3.35 0 1.7 0 0 Z "
    fill="#F5FAFE" transform="translate(136,75)" />
  <path
    d="M0 0 C0.33 0 0.66 0 1 0 C1.02888514 3.14581423 1.04675923 6.29159469 1.0625 9.4375 C1.07087891 10.33533203 1.07925781 11.23316406 1.08789062 12.15820312 C1.09111328 13.01220703 1.09433594 13.86621094 1.09765625 14.74609375 C1.10289307 15.53685303 1.10812988 16.3276123 1.11352539 17.14233398 C1 19 1 19 0 20 C-3.38574998 20.47024305 -4.65478438 20.25669879 -7.4375 18.1875 C-8.7059375 17.1046875 -8.7059375 17.1046875 -10 16 C-11.98450156 14.96958573 -13.98199105 13.96314063 -16 13 C-16.495 12.505 -16.495 12.505 -17 12 C-19.80976518 11.83982834 -22.59773596 11.74049466 -25.41015625 11.68359375 C-26.25219101 11.66281265 -27.09422577 11.64203156 -27.96177673 11.62062073 C-30.66193179 11.55503188 -33.36218717 11.49619724 -36.0625 11.4375 C-37.88868241 11.39432363 -39.71485454 11.35070964 -41.54101562 11.30664062 C-46.02723992 11.19934106 -50.5135655 11.09810034 -55 11 C-55.33 10.34 -55.66 9.68 -56 9 C-50.62484067 8.97532241 -45.24971415 8.95715072 -39.87451172 8.94506836 C-38.04507879 8.94003263 -36.21564991 8.93320373 -34.38623047 8.92456055 C-31.76008102 8.91246176 -29.13398468 8.90676417 -26.5078125 8.90234375 C-25.68693146 8.89718246 -24.86605042 8.89202118 -24.02029419 8.88670349 C-18.22774341 8.88612829 -18.22774341 8.88612829 -16 10 C-16 9.34 -16 8.68 -16 8 C-15.34 7.67 -14.68 7.34 -14 7 C-14.495 6.01 -14.495 6.01 -15 5 C-12.7897045 6.02620862 -10.92682503 7.05716794 -9 8.5625 C-6.95556194 10.03193986 -5.45477972 10.56164648 -3 11 C-2.67 9.68 -2.34 8.36 -2 7 C-1.67 7 -1.34 7 -1 7 C-0.67 4.69 -0.34 2.38 0 0 Z "
    fill="#3D4C78" transform="translate(70,97)" />
  <path
    d="M0 0 C0.66 0.33 1.32 0.66 2 1 C3.06782486 4.20347459 3.12058306 6.48187823 3.11352539 9.84838867 C3.11341209 11.64991646 3.11341209 11.64991646 3.11329651 13.48783875 C3.10813522 14.78478165 3.10297394 16.08172455 3.09765625 17.41796875 C3.09579077 18.75889534 3.09436748 20.09982261 3.09336853 21.44075012 C3.08955356 24.96709073 3.07973199 28.49339004 3.06866455 32.01971436 C3.0584285 35.61925691 3.0538114 39.21880635 3.04882812 42.81835938 C3.03863969 49.8789427 3.01906549 56.93941268 3 64 C14.22 64 25.44 64 37 64 C37 64.33 37 64.66 37 65 C20.665 65.495 20.665 65.495 4 66 C14.23 66.33 24.46 66.66 35 67 C35 67.33 35 67.66 35 68 C23.12 68 11.24 68 -1 68 C-0.67 45.56 -0.34 23.12 0 0 Z "
    fill="#39416A" transform="translate(17,37)" />
  <path
    d="M0 0 C1.21042969 -0.01224609 2.42085937 -0.02449219 3.66796875 -0.03710938 C4.82683594 -0.03904297 5.98570313 -0.04097656 7.1796875 -0.04296875 C8.24687012 -0.04707764 9.31405273 -0.05118652 10.41357422 -0.05541992 C13.125 0.1875 13.125 0.1875 16.125 2.1875 C15.795 3.8375 15.465 5.4875 15.125 7.1875 C11.15569011 7.21215881 7.18640966 7.23034023 3.21704102 7.24243164 C1.86579614 7.24747057 0.51455674 7.25430177 -0.83666992 7.26293945 C-2.77520434 7.27502419 -4.713778 7.28019828 -6.65234375 7.28515625 C-8.40405884 7.29301147 -8.40405884 7.29301147 -10.19116211 7.30102539 C-12.875 7.1875 -12.875 7.1875 -13.875 6.1875 C-14 3.6875 -14 3.6875 -13.875 1.1875 C-11.23629792 -1.45120208 -3.55316707 0.00187998 0 0 Z "
    fill="#636A89" transform="translate(92.875,45.8125)" />
  <path
    d="M0 0 C1.16660156 0.00322266 2.33320312 0.00644531 3.53515625 0.00976562 C4.75847656 0.01814453 5.98179688 0.02652344 7.2421875 0.03515625 C8.47324219 0.03966797 9.70429687 0.04417969 10.97265625 0.04882812 C14.02088142 0.06064295 17.06901064 0.07711597 20.1171875 0.09765625 C20.1171875 2.40765625 20.1171875 4.71765625 20.1171875 7.09765625 C15.65890824 7.15548665 11.2007247 7.1911948 6.7421875 7.22265625 C5.47117187 7.23941406 4.20015625 7.25617188 2.890625 7.2734375 C1.67890625 7.27988281 0.4671875 7.28632812 -0.78125 7.29296875 C-1.90192871 7.30344238 -3.02260742 7.31391602 -4.17724609 7.32470703 C-6.8828125 7.09765625 -6.8828125 7.09765625 -8.8828125 5.09765625 C-8.6328125 3.03515625 -8.6328125 3.03515625 -7.8828125 1.09765625 C-5.16879956 -0.25935022 -3.03434934 -0.01472985 0 0 Z "
    fill="#565D7D" transform="translate(36.8828125,74.90234375)" />
  <path
    d="M0 0 C8.91 0 17.82 0 27 0 C27.33 1.65 27.66 3.3 28 5 C25.35300384 7.64699616 24.09605591 7.25749767 20.40625 7.265625 C19.29378906 7.26820312 18.18132813 7.27078125 17.03515625 7.2734375 C15.86855469 7.26570313 14.70195313 7.25796875 13.5 7.25 C12.33339844 7.25773437 11.16679688 7.26546875 9.96484375 7.2734375 C8.85238281 7.27085938 7.73992188 7.26828125 6.59375 7.265625 C5.56958984 7.26336914 4.54542969 7.26111328 3.49023438 7.25878906 C1 7 1 7 -1 5 C-0.67 3.35 -0.34 1.7 0 0 Z "
    fill="#222E55" transform="translate(29,62)" />
  <path
    d="M0 0 C1.1653125 -0.00128906 2.330625 -0.00257812 3.53125 -0.00390625 C4.7584375 -0.00003906 5.985625 0.00382812 7.25 0.0078125 C9.09078125 0.00201172 9.09078125 0.00201172 10.96875 -0.00390625 C12.71671875 -0.00197266 12.71671875 -0.00197266 14.5 0 C15.57765625 0.00112793 16.6553125 0.00225586 17.765625 0.00341797 C20.25 0.1328125 20.25 0.1328125 21.25 1.1328125 C21.375 3.6328125 21.375 3.6328125 21.25 6.1328125 C19.47550406 7.90730844 16.89982739 7.26311322 14.5 7.265625 C13.3346875 7.26691406 12.169375 7.26820312 10.96875 7.26953125 C9.7415625 7.26566406 8.514375 7.26179688 7.25 7.2578125 C5.40921875 7.26361328 5.40921875 7.26361328 3.53125 7.26953125 C2.3659375 7.26824219 1.200625 7.26695313 0 7.265625 C-1.07765625 7.26449707 -2.1553125 7.26336914 -3.265625 7.26220703 C-5.75 7.1328125 -5.75 7.1328125 -6.75 6.1328125 C-6.875 3.6328125 -6.875 3.6328125 -6.75 1.1328125 C-4.97550406 -0.64168344 -2.39982739 0.00251178 0 0 Z "
    fill="#394166" transform="translate(85.75,58.8671875)" />
  <path
    d="M0 0 C1.11697266 -0.00128906 2.23394531 -0.00257812 3.38476562 -0.00390625 C4.55587891 -0.00003906 5.72699219 0.00382812 6.93359375 0.0078125 C8.10857422 0.00394531 9.28355469 0.00007813 10.49414062 -0.00390625 C12.16766602 -0.00197266 12.16766602 -0.00197266 13.875 0 C14.90439697 0.00112793 15.93379395 0.00225586 16.99438477 0.00341797 C19.37109375 0.1328125 19.37109375 0.1328125 20.37109375 1.1328125 C20.49609375 3.6328125 20.49609375 3.6328125 20.37109375 6.1328125 C19.37109375 7.1328125 19.37109375 7.1328125 16.77905273 7.24633789 C15.65313721 7.24110107 14.52722168 7.23586426 13.3671875 7.23046875 C12.15224609 7.22724609 10.93730469 7.22402344 9.68554688 7.22070312 C8.40615234 7.21232422 7.12675781 7.20394531 5.80859375 7.1953125 C4.52533203 7.19080078 3.24207031 7.18628906 1.91992188 7.18164062 C-1.26306647 7.16980795 -4.44596387 7.15332318 -7.62890625 7.1328125 C-7.62890625 5.1528125 -7.62890625 3.1728125 -7.62890625 1.1328125 C-4.98062446 -0.1913284 -2.96210513 0.00324208 0 0 Z "
    fill="#384265" transform="translate(86.62890625,32.8671875)" />
  <path
    d="M0 0 C0.33 0 0.66 0 1 0 C1 23.43 1 46.86 1 71 C-7.91 70.67 -16.82 70.34 -26 70 C-25.67 69.01 -25.34 68.02 -25 67 C-15.1 66.505 -15.1 66.505 -5 66 C-4.896875 64.22625 -4.79375 62.4525 -4.6875 60.625 C-4.51171875 57.6015625 -4.51171875 57.6015625 -4 55 C-3.01 54.34 -2.02 53.68 -1 53 C-0.5232915 50.66257775 -0.5232915 50.66257775 -0.56762695 47.90771484 C-0.54783279 46.84676605 -0.52803864 45.78581726 -0.50764465 44.69271851 C-0.50125473 43.54373077 -0.49486481 42.39474304 -0.48828125 41.2109375 C-0.47033005 40.03737701 -0.45237885 38.86381653 -0.43388367 37.6546936 C-0.37956578 33.89483264 -0.34581552 30.13510015 -0.3125 26.375 C-0.27934597 23.8307112 -0.24485813 21.28643941 -0.20898438 18.7421875 C-0.12382702 12.49490687 -0.05556844 6.24761005 0 0 Z "
    fill="#3D4B76" transform="translate(122,20)" />
  <path
    d="M0 0 C1.12591553 0.00523682 2.25183105 0.01047363 3.41186523 0.01586914 C4.62680664 0.0190918 5.84174805 0.02231445 7.09350586 0.02563477 C8.37290039 0.03401367 9.65229492 0.04239258 10.97045898 0.05102539 C12.2537207 0.05553711 13.53698242 0.06004883 14.85913086 0.06469727 C18.04211921 0.07652994 21.22501661 0.09301471 24.40795898 0.11352539 C24.79014666 1.76967196 25.12191 3.43809563 25.40795898 5.11352539 C24.40795898 6.11352539 24.40795898 6.11352539 21.81591797 6.22705078 C20.69000244 6.22181396 19.56408691 6.21657715 18.40405273 6.21118164 C17.18911133 6.20795898 15.97416992 6.20473633 14.72241211 6.20141602 C13.44301758 6.19303711 12.16362305 6.1846582 10.84545898 6.17602539 C9.56219727 6.17151367 8.27893555 6.16700195 6.95678711 6.16235352 C3.77379876 6.15052085 0.59090136 6.13403607 -2.59204102 6.11352539 C-2.97422869 4.45737882 -3.30599203 2.78895515 -3.59204102 1.11352539 C-2.59204102 0.11352539 -2.59204102 0.11352539 0 0 Z "
    fill="#293458" transform="translate(31.592041015625,48.886474609375)" />
  <path
    d="M0 0 C1.65 0 3.3 0 5 0 C5 10.23 5 20.46 5 31 C3.35 31 1.7 31 0 31 C0 20.77 0 10.54 0 0 Z "
    fill="#F6FDFE" transform="translate(181,73)" />
  <path
    d="M0 0 C1.9375 1.0625 1.9375 1.0625 3 3 C3.26641894 6.72986522 3.1845131 9.44646071 2 13 C-0.87470493 14.43735246 -2.81894588 14.38172649 -6 14 C-8.93558002 11.3734284 -9.89023229 9.78405505 -10.4375 5.875 C-10 3 -10 3 -8.9375 1.125 C-5.8930714 -0.64273274 -3.4368988 -0.36823916 0 0 Z "
    fill="#B6CBEC" transform="translate(178,51)" />
  <path
    d="M0 0 C0.74507812 0.00902344 1.49015625 0.01804687 2.2578125 0.02734375 C4.08868059 0.05081642 5.91938238 0.08668475 7.75 0.125 C7.75 0.785 7.75 1.445 7.75 2.125 C10.42848546 4.80348546 11.88970861 4.43004006 15.6328125 4.5390625 C16.79941406 4.57773437 17.96601562 4.61640625 19.16796875 4.65625 C21.00294922 4.70265625 21.00294922 4.70265625 22.875 4.75 C24.10605469 4.78867187 25.33710937 4.82734375 26.60546875 4.8671875 C29.65349376 4.9616999 32.70150862 5.04725494 35.75 5.125 C35.75 5.455 35.75 5.785 35.75 6.125 C34.59999512 6.14481934 33.44999023 6.16463867 32.26513672 6.18505859 C27.98220615 6.26136046 23.69960444 6.35003946 19.41699219 6.44238281 C17.56647249 6.48057122 15.71588113 6.51544151 13.86523438 6.546875 C11.19895893 6.59274641 8.53317252 6.65070359 5.8671875 6.7109375 C4.63402298 6.72826431 4.63402298 6.72826431 3.37594604 6.74594116 C-1.23175064 6.86326388 -4.88083694 7.5141762 -9.25 9.125 C-11.625 8.75 -11.625 8.75 -13.25 8.125 C-13 5.25 -13 5.25 -12.25 2.125 C-8.65341553 -0.66418796 -4.3260244 -0.09936098 0 0 Z "
    fill="#3C476C" transform="translate(80.25,18.875)" />
  <path
    d="M0 0 C1.875 1.125 1.875 1.125 3 3 C3.57977821 6.80997107 3.27372261 8.53365777 1.3125 11.875 C-1 14 -1 14 -3.5625 14.5 C-6 14 -6 14 -7.8125 13 C-9.71233631 9.80027569 -9.54304262 6.62028416 -9 3 C-6.89283346 -0.74607384 -4.00604938 -0.50075617 0 0 Z "
    fill="#AFC5ED" transform="translate(205,51)" />
  <path
    d="M0 0 C3.0625 0.25 3.0625 0.25 6.0625 2.25 C6.4609375 4.30859375 6.4609375 4.30859375 6.4375 6.6875 C6.44523438 7.46996094 6.45296875 8.25242187 6.4609375 9.05859375 C5.97418492 11.73573295 5.20912514 12.62205701 3.0625 14.25 C0.5625 14.625 0.5625 14.625 -1.9375 14.25 C-4.09312942 12.61913001 -4.85400422 11.75366811 -5.30078125 9.05859375 C-5.28402344 8.27613281 -5.26726562 7.49367188 -5.25 6.6875 C-5.24613281 5.90246094 -5.24226562 5.11742187 -5.23828125 4.30859375 C-4.72351023 0.78542068 -3.40932708 0.2901555 0 0 Z "
    fill="#B1C6EA" transform="translate(146.9375,50.75)" />
  <path
    d="M0 0 C1 1 1 1 1.25 4.875 C1.20377533 7.45433662 1.15273457 8.72847187 -0.125 11 C-2.88634715 12.47271848 -4.93002928 12.39191116 -8 12 C-10.46324069 8.30513897 -10.38991688 6.36706908 -10 2 C-7.70416093 -2.32157943 -4.21625407 -0.93694535 0 0 Z "
    fill="#ACC4EC" transform="translate(167,87)" />
  <path
    d="M0 0 C0.33 0 0.66 0 1 0 C2.91983162 12.39017381 3.10801367 24.98170204 3.25 37.5 C3.2713501 38.50933594 3.2927002 39.51867187 3.31469727 40.55859375 C3.31912842 41.49832031 3.32355957 42.43804687 3.328125 43.40625 C3.3374707 44.24478516 3.34681641 45.08332031 3.35644531 45.94726562 C3.23881836 46.62466797 3.12119141 47.30207031 3 48 C2.01 48.66 1.02 49.32 0 50 C0 33.5 0 17 0 0 Z "
    fill="#293259" transform="translate(118,25)" />
  <path
    d="M0 0 C1.084021 0.00523682 2.16804199 0.01047363 3.28491211 0.01586914 C5.03964844 0.02070312 5.03964844 0.02070312 6.82983398 0.02563477 C8.67738281 0.03820312 8.67738281 0.03820312 10.56225586 0.05102539 C12.41560547 0.05779297 12.41560547 0.05779297 14.30639648 0.06469727 C17.37089703 0.07652931 20.43530307 0.09301366 23.49975586 0.11352539 C23.49975586 0.77352539 23.49975586 1.43352539 23.49975586 2.11352539 C15.57975586 2.11352539 7.65975586 2.11352539 -0.50024414 2.11352539 C-0.50024414 2.77352539 -0.50024414 3.43352539 -0.50024414 4.11352539 C7.41975586 4.11352539 15.33975586 4.11352539 23.49975586 4.11352539 C23.49975586 4.44352539 23.49975586 4.77352539 23.49975586 5.11352539 C14.91975586 5.11352539 6.33975586 5.11352539 -2.50024414 5.11352539 C-2.83024414 3.79352539 -3.16024414 2.47352539 -3.50024414 1.11352539 C-2.50024414 0.11352539 -2.50024414 0.11352539 0 0 Z "
    fill="#19254D" transform="translate(31.500244140625,75.886474609375)" />
  <path
    d="M0 0 C8.58 0 17.16 0 26 0 C26 1.65 26 3.3 26 5 C17.42 5 8.84 5 0 5 C3.56273355 3.21863323 4.82395587 2.73686665 8.546875 2.5859375 C9.30838867 2.55032715 10.06990234 2.5147168 10.85449219 2.47802734 C11.81000977 2.44402832 12.76552734 2.4100293 13.75 2.375 C16.8025 2.25125 19.855 2.1275 23 2 C11.615 1.505 11.615 1.505 0 1 C0 0.67 0 0.34 0 0 Z "
    fill="#141E44" transform="translate(81,47)" />
  <path
    d="M0 0 C1.134375 0.020625 2.26875 0.04125 3.4375 0.0625 C3.4375 0.3925 3.4375 0.7225 3.4375 1.0625 C1.4575 1.3925 -0.5225 1.7225 -2.5625 2.0625 C-2.8925 12.2925 -3.2225 22.5225 -3.5625 33.0625 C-1.2525 33.0625 1.0575 33.0625 3.4375 33.0625 C3.4375 30.4225 3.4375 27.7825 3.4375 25.0625 C4.7575 26.0525 6.0775 27.0425 7.4375 28.0625 C7.1075 29.0525 6.7775 30.0425 6.4375 31.0625 C5.7775 31.0625 5.1175 31.0625 4.4375 31.0625 C4.1075 32.3825 3.7775 33.7025 3.4375 35.0625 C0.7975 35.0625 -1.8425 35.0625 -4.5625 35.0625 C-4.5871519 30.23869198 -4.60533693 25.41492033 -4.61743164 20.59106445 C-4.62247174 18.94880536 -4.62930378 17.30655077 -4.63793945 15.66430664 C-4.65001926 13.30874521 -4.65573139 10.95324291 -4.66015625 8.59765625 C-4.66531754 7.85910904 -4.67047882 7.12056183 -4.67579651 6.3596344 C-4.6759925 4.59351912 -4.62444719 2.82752854 -4.5625 1.0625 C-3.5625 0.0625 -3.5625 0.0625 0 0 Z "
    fill="#ADC0E3" transform="translate(221.5625,35.9375)" />
  <path
    d="M0 0 C3.5786304 1.65167557 6.74820188 3.78286492 10 6 C9.67 6.66 9.34 7.32 9 8 C8.34 8 7.68 8 7 8 C7.66 9.65 8.32 11.3 9 13 C7.66666667 12.33333333 6.33333333 11.66666667 5 11 C3.453125 10.2884375 3.453125 10.2884375 1.875 9.5625 C-1 8 -1 8 -3 5 C-2.34 5 -1.68 5 -1 5 C-1 4.34 -1 3.68 -1 3 C-0.34 2.67 0.32 2.34 1 2 C0.67 1.34 0.34 0.68 0 0 Z "
    fill="#323E6A" transform="translate(55,102)" />
  <path
    d="M0 0 C8.91 0 17.82 0 27 0 C27.33 0.66 27.66 1.32 28 2 C19.09 1.67 10.18 1.34 1 1 C1.33 2.32 1.66 3.64 2 5 C9.92 5.33 17.84 5.66 26 6 C26 6.33 26 6.66 26 7 C21.87505849 7.05784708 17.75022056 7.09354407 13.625 7.125 C12.449375 7.14175781 11.27375 7.15851563 10.0625 7.17578125 C8.38027344 7.18544922 8.38027344 7.18544922 6.6640625 7.1953125 C5.62717285 7.20578613 4.5902832 7.21625977 3.52197266 7.22705078 C1 7 1 7 -1 5 C-0.67 3.35 -0.34 1.7 0 0 Z "
    fill="#656C85" transform="translate(29,62)" />
  <path
    d="M0 0 C1.99954746 -0.04254356 4.00041636 -0.04080783 6 0 C7 1 7 1 7.11352539 3.22485352 C7.10828857 4.18319092 7.10305176 5.14152832 7.09765625 6.12890625 C7.09282227 7.68061523 7.09282227 7.68061523 7.08789062 9.26367188 C7.07951172 10.35228516 7.07113281 11.44089844 7.0625 12.5625 C7.05798828 13.65498047 7.05347656 14.74746094 7.04882812 15.87304688 C7.03699826 18.58208495 7.02051543 21.29101599 7 24 C5.02 24 3.04 24 1 24 C1 23.67 1 23.34 1 23 C2.65 23 4.3 23 6 23 C6 16.07 6 9.14 6 2 C4.02 2.33 2.04 2.66 0 3 C0 2.01 0 1.02 0 0 Z "
    fill="#DEEBFD" transform="translate(168,80)" />
  <path
    d="M0 0 C1.32 0.33 2.64 0.66 4 1 C4 4.3 4 7.6 4 11 C2.68 10.67 1.36 10.34 0 10 C0 6.7 0 3.4 0 0 Z "
    fill="#AAC2F0" transform="translate(144,87)" />
  <path
    d="M0 0 C-0.66 1.65 -1.32 3.3 -2 5 C-1.01 5.33 -0.02 5.66 1 6 C-1.35438733 7.42944945 -2.48032433 8.08661261 -5.25 7.625 C-5.8275 7.41875 -6.405 7.2125 -7 7 C-6.75 4.125 -6.75 4.125 -6 1 C-2.77922078 -1.38961039 -2.77922078 -1.38961039 0 0 Z "
    fill="#2F3F67" transform="translate(74,20)" />
  <path
    d="M0 0 C1.98 0.495 1.98 0.495 4 1 C4.33 4.63 4.66 8.26 5 12 C4.01 11.67 3.02 11.34 2 11 C1.01 11 0.02 11 -1 11 C-0.67 7.37 -0.34 3.74 0 0 Z "
    fill="#C1D0EB" transform="translate(186,53)" />
  <path
    d="M0 0 C1.32 0.99 2.64 1.98 4 3 C3.67 3.99 3.34 4.98 3 6 C2.34 6 1.68 6 1 6 C0.67 7.32 0.34 8.64 0 10 C-2.64 10 -5.28 10 -8 10 C-7.67 9.34 -7.34 8.68 -7 8 C-4.69 8 -2.38 8 0 8 C0 5.36 0 2.72 0 0 Z "
    fill="#B9CAE6" transform="translate(225,61)" />
  <path
    d="M0 0 C0.99 0 1.98 0 3 0 C4.09315246 4.5838914 4.32282625 9.12511007 4.5625 13.8125 C4.60568359 14.60076172 4.64886719 15.38902344 4.69335938 16.20117188 C4.79878321 18.13394215 4.89983094 20.06695026 5 22 C4.34 21.67 3.68 21.34 3 21 C3 16.05 3 11.1 3 6 C2.01 6 1.02 6 0 6 C0 4.02 0 2.04 0 0 Z "
    fill="#E2EEFD" transform="translate(133,80)" />
  <path
    d="M0 0 C0.66 0.33 1.32 0.66 2 1 C2.62572422 8.97798378 2.62572422 8.97798378 0.125 13.0625 C-2 15 -2 15 -4 15 C-3.67 13.68 -3.34 12.36 -3 11 C-2.34 11 -1.68 11 -1 11 C-0.67 7.37 -0.34 3.74 0 0 Z "
    fill="#B4C5E8" transform="translate(214,54)" />
  <path
    d="M0 0 C2.64 0.99 5.28 1.98 8 3 C7.01 3.66 6.02 4.32 5 5 C4.34 5.66 3.68 6.32 3 7 C-0.11227195 7 -2.94152152 6.54372951 -6 6 C-6 5.67 -6 5.34 -6 5 C-2.535 4.505 -2.535 4.505 1 4 C0.67 2.68 0.34 1.36 0 0 Z "
    fill="#AABFE5" transform="translate(142,68)" />
  <path
    d="M0 0 C0.33 0.66 0.66 1.32 1 2 C0.0625 4 0.0625 4 -2 6 C-5.02534949 6.36475845 -7.96663814 6.22893297 -11 6 C-11.33 5.34 -11.66 4.68 -12 4 C-11.38511719 3.96261719 -10.77023438 3.92523438 -10.13671875 3.88671875 C-9.32847656 3.82097656 -8.52023438 3.75523438 -7.6875 3.6875 C-6.88699219 3.62949219 -6.08648437 3.57148437 -5.26171875 3.51171875 C-2.63727666 2.91793306 -1.69179328 2.04219706 0 0 Z "
    fill="#BFD1EB" transform="translate(157,65)" />
  <path
    d="M0 0 C0 4 0 8 0 12 C-2.5 10.1875 -2.5 10.1875 -5 8 C-5 7.01 -5 6.02 -5 5 C-4.34 5 -3.68 5 -3 5 C-2.5359375 4.0409375 -2.5359375 4.0409375 -2.0625 3.0625 C-1 1 -1 1 0 0 Z "
    fill="#B7CCE9" transform="translate(209,86)" />
  <path
    d="M0 0 C5.4 -0.36 5.4 -0.36 7.875 1.125 C9.50531294 3.84218824 9.33015665 5.89652746 9 9 C8.34 9.66 7.68 10.32 7 11 C6.855625 9.906875 6.71125 8.81375 6.5625 7.6875 C6.11711896 4.06877013 6.11711896 4.06877013 5 1 C3.35 1 1.7 1 0 1 C0 0.67 0 0.34 0 0 Z "
    fill="#B7CAE6" transform="translate(199,51)" />
  <path
    d="M0 0 C1.22589844 0.01353516 1.22589844 0.01353516 2.4765625 0.02734375 C3.41628906 0.04474609 3.41628906 0.04474609 4.375 0.0625 C4.375 0.3925 4.375 0.7225 4.375 1.0625 C3.323125 1.145 2.27125 1.2275 1.1875 1.3125 C-2.94126847 2.12471675 -4.46847482 3.43206235 -7.625 6.0625 C-8.615 5.7325 -9.605 5.4025 -10.625 5.0625 C-10.295 4.4025 -9.965 3.7425 -9.625 3.0625 C-8.635 3.0625 -7.645 3.0625 -6.625 3.0625 C-6.625 2.4025 -6.625 1.7425 -6.625 1.0625 C-4.21954362 -0.14022819 -2.67503047 -0.03821472 0 0 Z "
    fill="#DDE8F9" transform="translate(174.625,44.9375)" />
  <path
    d="M0 0 C2.00841268 0.01421885 4.01537247 0.13420475 6.01953125 0.265625 C5.35953125 1.585625 4.69953125 2.905625 4.01953125 4.265625 C3.68953125 3.605625 3.35953125 2.945625 3.01953125 2.265625 C0.5468636 2.61007381 0.5468636 2.61007381 -1.98046875 3.265625 C-2.31046875 3.925625 -2.64046875 4.585625 -2.98046875 5.265625 C-3.64046875 4.935625 -4.30046875 4.605625 -4.98046875 4.265625 C-3.72152968 1.74774686 -2.88459378 0.38688832 0 0 Z "
    fill="#D7E7FC" transform="translate(207.98046875,79.734375)" />
  <path
    d="M0 0 C0.66 0 1.32 0 2 0 C2 2.31 2 4.62 2 7 C3.65 6.67 5.3 6.34 7 6 C6.67 6.66 6.34 7.32 6 8 C2.9375 8.625 2.9375 8.625 0 9 C0 6.03 0 3.06 0 0 Z "
    fill="#B4C7F3" transform="translate(72,77)" />
  <path
    d="M0 0 C-0.33 1.65 -0.66 3.3 -1 5 C-1.33 4.34 -1.66 3.68 -2 3 C-6.62 3 -11.24 3 -16 3 C-16 2.67 -16 2.34 -16 2 C-15.15695313 1.93941406 -14.31390625 1.87882812 -13.4453125 1.81640625 C-12.34960938 1.73261719 -11.25390625 1.64882813 -10.125 1.5625 C-9.03445312 1.48128906 -7.94390625 1.40007813 -6.8203125 1.31640625 C-4.26398303 1.02961583 -2.50524575 0 0 0 Z "
    fill="#2C3760" transform="translate(57,50)" />
  <path
    d="M0 0 C0.33 1.32 0.66 2.64 1 4 C0.45859375 3.83628906 -0.0828125 3.67257813 -0.640625 3.50390625 C-3.40222593 2.91409413 -5.92818139 2.90390692 -8.75 2.9375 C-9.73484375 2.94652344 -10.7196875 2.95554688 -11.734375 2.96484375 C-12.85585937 2.98224609 -12.85585937 2.98224609 -14 3 C-13.67 2.34 -13.34 1.68 -13 1 C-10.8203125 0.5859375 -10.8203125 0.5859375 -8.125 0.375 C-7.24070313 0.30023438 -6.35640625 0.22546875 -5.4453125 0.1484375 C-3.63287027 0.03841705 -1.81577843 0 0 0 Z "
    fill="#C4D1ED" transform="translate(210,44)" />
  <path
    d="M0 0 C3.96 0.33 7.92 0.66 12 1 C12 1.33 12 1.66 12 2 C8.7 2 5.4 2 2 2 C2 2.99 2 3.98 2 5 C1.34 5 0.68 5 0 5 C0 3.35 0 1.7 0 0 Z "
    fill="#393F61" transform="translate(79,47)" />
  <path
    d="M0 0 C4.875 4.75 4.875 4.75 6 7 C5.01 7 4.02 7 3 7 C3 6.34 3 5.68 3 5 C2.01 4.67 1.02 4.34 0 4 C0 2.68 0 1.36 0 0 Z "
    fill="#B6C7EA" transform="translate(200,97)" />
</svg>